HIERARCHY
ROOT Hips
{
	OFFSET 47.195301 1.889466 84.018303
	CHANNELS 6 Xposition Yposition Zposition Xrotation Yrotation Zrotation
	JOINT spine
	{
		OFFSET 0.000000 -0.359108 6.244789
		CHANNELS 3 Xrotation Yrotation Zrotation
		JOINT spine1
		{
			OFFSET 0.000000 -0.000002 9.069412
			CHANNELS 3 Xrotation Yrotation Zrotation
			JOINT spine2
			{
				OFFSET 0.000000 -0.000001 8.690140
				CHANNELS 3 Xrotation Yrotation Zrotation
				JOINT Neck
				{
					OFFSET 0.000000 -1.063724 22.311203
					CHANNELS 3 Xrotation Yrotation Zrotation
					JOINT Head
					{
						OFFSET 0.000000 -0.000001 6.740814
						CHANNELS 3 Xrotation Yrotation Zrotation
						End Site
						{
							OFFSET 0.000000 5.380968 16.316498
						}
					}
				}
				JOINT RightShoulder
				{
					OFFSET -3.659161 0.509513 9.384682
					CHANNELS 3 Xrotation Yrotation Zrotation
					JOINT RightArm
					{
						OFFSET 0.000000 -0.000002 12.308907
						CHANNELS 3 Xrotation Yrotation Zrotation
						JOINT RightArmRoll
						{
							OFFSET 0.000000 -0.000001 6.213745
							CHANNELS 3 Xrotation Yrotation Zrotation
							JOINT RightForeArm
							{
								OFFSET 0.000000 -0.000003 18.098495
								CHANNELS 3 Xrotation Yrotation Zrotation
								JOINT RightForeArmRoll
								{
									OFFSET 0.000000 -0.000001 6.972794
									CHANNELS 3 Xrotation Yrotation Zrotation
									JOINT RightHand
									{
										OFFSET 0.000000 -0.000002 13.992905
										CHANNELS 3 Xrotation Yrotation Zrotation
										End Site
										{
											OFFSET 0.000000 0.000000 0.100006
										}
									}
								}
							}
						}
					}
				}
				JOINT LeftShoulder
				{
					OFFSET 3.659161 0.509513 9.384682
					CHANNELS 3 Xrotation Yrotation Zrotation
					JOINT LeftArm
					{
						OFFSET 0.000000 -0.000002 12.308907
						CHANNELS 3 Xrotation Yrotation Zrotation
						JOINT LeftArmRoll
						{
							OFFSET 0.000000 -0.000001 6.213745
							CHANNELS 3 Xrotation Yrotation Zrotation
							JOINT LeftForeArm
							{
								OFFSET 0.000000 -0.000003 18.098495
								CHANNELS 3 Xrotation Yrotation Zrotation
								JOINT LeftForeArmRoll
								{
									OFFSET 0.000000 -0.000001 6.972794
									CHANNELS 3 Xrotation Yrotation Zrotation
									JOINT LeftHand
									{
										OFFSET 0.000000 -0.000002 13.992905
										CHANNELS 3 Xrotation Yrotation Zrotation
										End Site
										{
											OFFSET 0.000000 0.000000 0.100006
										}
									}
								}
							}
						}
					}
				}
			}
		}
	}
	JOINT RightUpLeg
	{
		OFFSET -5.535149 0.851454 -1.014999
		CHANNELS 3 Xrotation Yrotation Zrotation
		JOINT RightUpLegRoll
		{
			OFFSET 0.000000 -0.000003 16.407501
			CHANNELS 3 Xrotation Yrotation Zrotation
			JOINT RightLeg
			{
				OFFSET 0.000000 0.000003 -20.318100
				CHANNELS 3 Xrotation Yrotation Zrotation
				JOINT RightLegRoll
				{
					OFFSET 0.000000 -0.000003 20.384598
					CHANNELS 3 Xrotation Yrotation Zrotation
					JOINT RightFoot
					{
						OFFSET 0.000000 -0.000003 16.966805
						CHANNELS 3 Xrotation Yrotation Zrotation
						JOINT RightToeBase
						{
							OFFSET 0.000000 -0.000002 14.183395
							CHANNELS 3 Xrotation Yrotation Zrotation
							End Site
							{
								OFFSET 0.006012 0.791745 6.868896
							}
						}
					}
				}
			}
		}
	}
	JOINT LeftUpLeg
	{
		OFFSET 5.535149 0.851454 -1.014999
		CHANNELS 3 Xrotation Yrotation Zrotation
		JOINT LeftUpLegRoll
		{
			OFFSET 0.000000 -0.000003 16.407600
			CHANNELS 3 Xrotation Yrotation Zrotation
			JOINT LeftLeg
			{
				OFFSET 0.000000 -0.000003 20.318100
				CHANNELS 3 Xrotation Yrotation Zrotation
				JOINT LeftLegRoll
				{
					OFFSET 0.000000 -0.000003 20.573105
					CHANNELS 3 Xrotation Yrotation Zrotation
					JOINT LeftFoot
					{
						OFFSET 0.000000 -0.000003 16.778305
						CHANNELS 3 Xrotation Yrotation Zrotation
						JOINT LeftToeBase
						{
							OFFSET 0.000000 -0.000002 14.183395
							CHANNELS 3 Xrotation Yrotation Zrotation
							End Site
							{
								OFFSET -0.026943 0.791745 6.868896
							}
						}
					}
				}
			}
		}
	}
}
MOTION
Frames: 7
Frame Time: 0.041667
48.506302 1.341837 83.993202 -0.244255 -1.349258 -2.097941 -1.082579 0.121658 -0.025827 1.839924 0.226878 -0.047105 3.485008 0.226284 -0.049816 10.284524 -0.675044 0.447692 1.849644 0.910500 0.439608 -2.431334 -63.930837 -3.348671 -27.476982 -112.966199 -20.789795 -0.000000 0.000001 -0.000003 14.228768 -12.177240 1.033628 0.000002 0.000002 -3.000001 -5.000180 -7.998712 0.000152 -16.344395 60.433466 19.319982 -19.964252 118.242609 6.367603 -0.000000 0.000000 -0.000001 21.952469 3.379796 -0.064010 -0.000002 -0.000007 2.999980 -5.000343 7.999678 -0.000047 -5.678549 -173.232053 3.230953 -179.999991 0.000005 -0.834002 166.298400 -2.556226 -1.250990 -0.000002 -0.000002 0.043521 71.619362 5.760599 5.077781 25.456936 -7.353620 -0.000000 -0.314072 176.521048 -2.461621 -0.000005 -0.000004 -1.058570 -11.263768 0.948467 0.890644 -0.000002 0.000003 -0.382626 74.936963 -6.619558 -2.462245 25.458267 7.347404 -0.002035 
48.522896 1.351287 83.986206 -0.237400 -1.345869 -2.098107 -1.083858 0.120844 -0.025747 1.839804 0.226397 -0.047226 3.484888 0.225788 -0.049930 10.281244 -0.684733 0.446768 1.836574 0.914035 0.439678 -2.430674 -63.941356 -3.348995 -27.552985 -112.968419 -20.912607 0.000000 0.000002 -0.000002 14.254153 -12.206721 1.041080 0.000003 0.000003 -3.000001 -5.000180 -7.998711 0.000152 -16.349403 60.424669 19.325733 -20.040654 118.265600 6.484322 0.000001 -0.000000 -0.000001 22.002124 3.398794 -0.068189 -0.000001 -0.000006 2.999982 -5.000341 7.999678 -0.000049 -5.690270 -173.244142 3.219744 -179.999991 0.000006 -0.834002 166.287567 -2.548344 -1.251574 -0.000001 -0.000002 0.044145 71.626637 5.759998 5.079509 25.456936 -7.353622 -0.000001 -0.331745 176.516048 -2.458719 -0.000005 -0.000004 -1.057990 -11.281554 0.944247 0.891232 -0.000002 0.000002 -0.382546 74.943267 -6.617673 -2.469526 25.458265 7.347404 -0.002034 
48.512497 1.353897 83.984810 -0.230593 -1.342459 -2.098122 -1.085262 0.120023 -0.025623 1.839615 0.225942 -0.047275 3.484698 0.225316 -0.049972 10.278665 -0.695186 0.445743 1.823044 0.918136 0.439682 -2.430235 -63.952564 -3.349629 -27.628332 -112.971650 -21.035716 0.000000 0.000003 -0.000003 14.279494 -12.237075 1.048728 0.000001 0.000002 -3.000001 -5.000175 -7.998712 0.000152 -16.353686 60.415441 19.330649 -20.117390 118.288727 6.601715 0.000000 0.000000 0.000001 22.051884 3.417858 -0.072414 0.000001 -0.000006 2.999981 -5.000341 7.999678 -0.000048 -5.701592 -173.255221 3.208616 -179.999991 0.000005 -0.834003 166.277445 -2.540457 -1.252135 -0.000001 -0.000002 0.044751 71.633576 5.759321 5.081439 25.456935 -7.353622 -0.000000 -0.349336 176.511062 -2.455871 -0.000005 -0.000005 -1.057400 -11.299143 0.940074 0.891813 -0.000001 0.000002 -0.382427 74.949250 -6.615803 -2.476824 25.458263 7.347404 -0.002034 
48.527401 1.357976 83.986000 -0.223824 -1.339030 -2.098050 -1.086739 0.119197 -0.025468 1.839394 0.225504 -0.047275 3.484478 0.224863 -0.049964 10.276692 -0.706173 0.444647 1.809175 0.922633 0.439644 -2.429945 -63.964182 -3.350483 -27.706317 -112.973241 -21.162371 0.000000 0.000001 -0.000003 14.304789 -12.268199 1.056554 0.000002 0.000003 -3.000001 -5.000177 -7.998714 0.000152 -16.357574 60.406056 19.335070 -20.193710 118.312851 6.718753 -0.000000 0.000000 -0.000000 22.101649 3.436977 -0.076693 -0.000000 -0.000008 2.999978 -5.000339 7.999679 -0.000049 -5.712614 -173.267296 3.197729 -179.999991 0.000005 -0.834002 166.267732 -2.532575 -1.251665 -0.000001 -0.000002 0.045344 71.640167 5.758578 5.083579 25.456935 -7.353622 0.000001 -0.366861 176.507074 -2.453048 -0.000005 -0.000005 -1.056790 -11.316431 0.935937 0.892384 -0.000001 0.000002 -0.382281 74.955083 -6.613843 -2.484321 25.458268 7.347407 -0.002036 
48.525799 1.360357 83.980804 -0.217074 -1.335600 -2.097920 -1.088251 0.118367 -0.025295 1.839144 0.225076 -0.047246 3.484226 0.224419 -0.049927 10.275115 -0.717465 0.443512 1.795118 0.927356 0.439580 -2.429717 -63.975978 -3.351429 -27.782959 -112.975714 -21.288066 -0.000000 0.000002 -0.000003 14.330104 -12.299603 1.064453 0.000001 0.000002 -3.000001 -5.000179 -7.998712 0.000152 -16.361237 60.396603 19.339226 -20.270104 118.337057 6.836032 -0.000001 0.000000 -0.000000 22.151524 3.456114 -0.081007 0.000000 -0.000007 2.999980 -5.000342 7.999678 -0.000050 -5.723503 -173.278375 3.186822 -179.999991 0.000006 -0.834002 166.258279 -2.525678 -1.252416 -0.000002 -0.000002 0.045930 71.646738 5.757733 5.085904 25.456938 -7.353622 0.000000 -0.384360 176.502088 -2.450239 -0.000005 -0.000005 -1.056170 -11.333522 0.931819 0.892949 -0.000001 0.000002 -0.382119 74.960732 -6.611933 -2.491836 25.458265 7.347404 -0.002034 
48.490200 1.357358 83.996002 -0.210325 -1.332171 -2.097780 -1.089783 0.117537 -0.025119 1.838894 0.224650 -0.047210 3.483977 0.223977 -0.049884 10.273544 -0.728834 0.442365 1.781003 0.932136 0.439513 -2.429520 -63.987896 -3.352412 -27.860917 -112.977374 -21.415266 0.000000 0.000003 -0.000002 14.355345 -12.331200 1.072410 0.000003 0.000003 -3.000001 -5.000180 -7.998712 0.000152 -16.364785 60.387055 19.343266 -20.346433 118.361304 6.953329 -0.000001 0.000000 -0.000001 22.201405 3.475255 -0.085352 0.000003 -0.000007 2.999981 -5.000347 7.999678 -0.000048 -5.734339 -173.289440 3.175925 -179.999991 0.000006 -0.834999 166.248963 -2.517802 -1.252934 -0.000001 -0.000002 0.046513 71.653220 5.756948 5.088143 25.456935 -7.353622 0.000000 -0.401848 176.497102 -2.447428 -0.000005 -0.000004 -1.055560 -11.350710 0.927706 0.893514 -0.000001 0.000002 -0.381954 74.966360 -6.609998 -2.499451 25.458267 7.347404 -0.002034 
48.494297 1.361814 83.996902 -0.203568 -1.328741 -2.097661 -1.091288 0.116709 -0.024951 1.838644 0.224219 -0.047189 3.483727 0.223531 -0.049855 10.271866 -0.740049 0.441238 1.766995 0.936801 0.439462 -2.429284 -63.999617 -3.353348 -27.937760 -112.979969 -21.541047 0.000000 0.000001 -0.000004 14.380680 -12.362495 1.080352 -0.000001 0.000002 -3.000000 -5.000179 -7.998712 0.000152 -16.368482 60.377602 19.347464 -20.422585 118.385579 7.070244 0.000000 0.000000 0.000000 22.251184 3.494379 -0.089732 -0.000001 -0.000007 2.999980 -5.000340 7.999679 -0.000048 -5.745253 -173.300505 3.165003 -179.999991 0.000006 -0.834999 166.239428 -2.510905 -1.252689 -0.000002 -0.000002 0.047101 71.659804 5.756139 5.090472 25.456938 -7.353622 -0.000000 -0.419350 176.492102 -2.444611 -0.000005 -0.000005 -1.054940 -11.367900 0.923581 0.894076 0.000000 0.000002 -0.381796 74.971995 -6.608089 -2.507066 25.458267 7.347404 -0.002034 
